<?xml version="1.0" encoding="utf-8"?>
<!-- Generator: Adobe Illustrator 15.1.0, SVG Export Plug-In . SVG Version: 6.00 Build 0)  -->
<!DOCTYPE svg PUBLIC "-//W3C//DTD SVG 1.1//EN" "http://www.w3.org/Graphics/SVG/1.1/DTD/svg11.dtd">
<svg version="1.1" id="Layer_1" xmlns="http://www.w3.org/2000/svg" xmlns:xlink="http://www.w3.org/1999/xlink" x="0px" y="0px"
	 width="197.368px" height="136.185px" viewBox="0 0 197.368 136.185" enable-background="new 0 0 197.368 136.185"
	 xml:space="preserve">
<g>
	<path fill="#3A1A40" stroke="#000000" stroke-width="9.3644" stroke-miterlimit="10" d="M186.146,106.805
		c0,13.56-9.389,24.55-20.973,24.55H34.092c-11.584,0-20.974-10.99-20.974-24.55V29.807c0-13.56,9.39-24.551,20.974-24.551h131.082
		c11.584,0,20.973,10.991,20.973,24.551V106.805z"/>
	<path fill="#C2345F" stroke="#000000" stroke-width="9.3644" stroke-miterlimit="10" d="M5.681,31.537
		c0-14.62,10.125-26.475,22.616-26.475h141.342c12.492,0,22.615,11.854,22.615,26.475H5.681z"/>
	<path fill="#07A5A9" stroke="#000000" stroke-width="9.3644" stroke-miterlimit="10" d="M124.877,54.999
		c0,5.129-4.574,9.282-10.219,9.282H85.04c-5.646,0-10.223-4.153-10.223-9.282l0,0c0-5.124,4.577-9.283,10.223-9.283h29.618
		C120.303,45.716,124.877,49.875,124.877,54.999L124.877,54.999z"/>
	<g>
		<polyline fill="none" stroke="#07A5A9" stroke-width="9.3644" stroke-miterlimit="10" points="125.076,83.544 149.344,97.301 
			125.076,111.521 		"/>
		
			<line fill="none" stroke="#07A5A9" stroke-width="9.3644" stroke-miterlimit="10" x1="113.041" y1="77.464" x2="102.324" y2="115.01"/>
		<polyline fill="none" stroke="#07A5A9" stroke-width="9.3644" stroke-miterlimit="10" points="76.412,111.521 52.144,97.764 
			76.412,83.544 		"/>
	</g>
</g>
</svg>
