<?xml version="1.0" encoding="utf-8"?>
<!-- Generator: Adobe Illustrator 15.1.0, SVG Export Plug-In . SVG Version: 6.00 Build 0)  -->
<!DOCTYPE svg PUBLIC "-//W3C//DTD SVG 1.1//EN" "http://www.w3.org/Graphics/SVG/1.1/DTD/svg11.dtd">
<svg version="1.1" id="Layer_1" xmlns="http://www.w3.org/2000/svg" xmlns:xlink="http://www.w3.org/1999/xlink" x="0px" y="0px"
	 width="263.158px" height="192px" viewBox="0 0 263.158 192" enable-background="new 0 0 263.158 192" xml:space="preserve">
<g>
	<path fill="#F1F2F2" stroke="#000000" stroke-width="3.3601" stroke-miterlimit="10" d="M260.279,153.016
		c0,20.075-13.904,36.353-31.059,36.353H35.105c-17.153,0-31.059-16.277-31.059-36.353V38.984c0-20.075,13.905-36.353,31.059-36.353
		h194.116c17.154,0,31.059,16.277,31.059,36.353V153.016z"/>
	<g>
		<g>
			
				<line fill="none" stroke="#000000" stroke-width="5.1962" stroke-miterlimit="10" x1="92.643" y1="14.562" x2="92.643" y2="77.312"/>
			
				<line fill="none" stroke="#000000" stroke-width="3.3367" stroke-miterlimit="10" x1="99.059" y1="14.562" x2="99.059" y2="77.312"/>
			
				<line fill="none" stroke="#000000" stroke-width="4" stroke-miterlimit="10" x1="109.226" y1="18.312" x2="109.226" y2="73.562"/>
			
				<line fill="none" stroke="#000000" stroke-width="4" stroke-miterlimit="10" x1="116.476" y1="22.812" x2="116.476" y2="67.812"/>
			
				<line fill="none" stroke="#000000" stroke-width="1.6621" stroke-miterlimit="10" x1="125.81" y1="37.312" x2="125.81" y2="52.562"/>
			<line fill="none" stroke="#000000" stroke-width="4" stroke-miterlimit="10" x1="74.476" y1="22.812" x2="74.476" y2="69.812"/>
			
				<line fill="none" stroke="#000000" stroke-width="2.8722" stroke-miterlimit="10" x1="67.268" y1="30.062" x2="67.268" y2="60.812"/>
			<line fill="none" stroke="#000000" stroke-width="4" stroke-miterlimit="10" x1="84.726" y1="16.312" x2="84.726" y2="75.312"/>
			<line fill="#DBD8CB" x1="71.059" y1="24.396" x2="71.059" y2="66.396"/>
			<line fill="none" x1="87.226" y1="16.312" x2="87.226" y2="77.312"/>
			<line fill="none" x1="112.226" y1="20.062" x2="112.226" y2="72.312"/>
		</g>
		<circle fill="#C2345F" cx="94.393" cy="45.437" r="13.333"/>
	</g>
	<g>
		<line stroke="#000000" stroke-width="3" stroke-miterlimit="10" x1="42.593" y1="14.938" x2="52.259" y2="14.938"/>
		<line fill="none" stroke="#000000" stroke-width="3" stroke-miterlimit="10" x1="28.926" y1="22.604" x2="52.259" y2="22.604"/>
		<line fill="none" stroke="#000000" stroke-width="3" stroke-miterlimit="10" x1="22.593" y1="30.271" x2="44.843" y2="30.271"/>
		<line fill="none" stroke="#000000" stroke-width="3" stroke-miterlimit="10" x1="20.093" y1="37.938" x2="40.093" y2="37.938"/>
		<line fill="none" stroke="#000000" stroke-width="3" stroke-miterlimit="10" x1="19.093" y1="46.438" x2="37.009" y2="46.438"/>
		<line fill="none" stroke="#000000" stroke-width="3" stroke-miterlimit="10" x1="21.093" y1="54.104" x2="34.593" y2="54.104"/>
		<line fill="none" stroke="#000000" stroke-width="3" stroke-miterlimit="10" x1="23.926" y1="61.938" x2="42.593" y2="61.938"/>
		<line fill="none" stroke="#000000" stroke-width="3" stroke-miterlimit="10" x1="30.259" y1="69.604" x2="52.259" y2="69.604"/>
		<line fill="none" stroke="#000000" stroke-width="3" stroke-miterlimit="10" x1="42.593" y1="76.938" x2="52.259" y2="76.938"/>
		<path fill="#F0804D" d="M52.259,65.771c-10.677,0-19.333-8.656-19.333-19.334s8.656-19.334,19.333-19.334"/>
	</g>
	<g>
		<path d="M153.603,15.562c16.846,0,30.5,13.991,30.5,31.25s-13.654,31.25-30.5,31.25"/>
		
			<line fill="#FFFFFF" stroke="#FFFFFF" stroke-width="1.0592" stroke-miterlimit="10" x1="168.853" y1="20.312" x2="152.165" y2="20.312"/>
		
			<line fill="#FFFFFF" stroke="#FFFFFF" stroke-width="1.0442" stroke-miterlimit="10" x1="174.79" y1="24.687" x2="152.165" y2="24.687"/>
		<line fill="#FFFFFF" stroke="#FFFFFF" stroke-miterlimit="10" x1="177.54" y1="29.187" x2="152.915" y2="29.187"/>
		<line fill="#FFFFFF" stroke="#FFFFFF" stroke-miterlimit="10" x1="180.54" y1="33.812" x2="152.915" y2="33.812"/>
		<line fill="#FFFFFF" stroke="#FFFFFF" stroke-miterlimit="10" x1="182.54" y1="38.437" x2="153.665" y2="38.437"/>
		<line fill="#FFFFFF" stroke="#FFFFFF" stroke-miterlimit="10" x1="183.415" y1="42.812" x2="152.915" y2="42.812"/>
		<line fill="#FFFFFF" stroke="#FFFFFF" stroke-miterlimit="10" x1="184.04" y1="47.437" x2="152.915" y2="47.437"/>
		<line fill="#FFFFFF" stroke="#FFFFFF" stroke-miterlimit="10" x1="184.04" y1="51.562" x2="153.665" y2="51.562"/>
		<line fill="#FFFFFF" stroke="#FFFFFF" stroke-miterlimit="10" x1="182.54" y1="56.312" x2="152.915" y2="56.312"/>
		<line fill="#FFFFFF" stroke="#FFFFFF" stroke-miterlimit="10" x1="181.54" y1="60.812" x2="149.29" y2="60.812"/>
		<line fill="#FFFFFF" stroke="#FFFFFF" stroke-miterlimit="10" x1="179.04" y1="65.187" x2="152.165" y2="65.187"/>
		<line fill="#FFFFFF" stroke="#FFFFFF" stroke-miterlimit="10" x1="174.79" y1="69.687" x2="151.415" y2="69.687"/>
		<line fill="#FFFFFF" stroke="#FFFFFF" stroke-miterlimit="10" x1="167.728" y1="74.562" x2="148.665" y2="74.562"/>
		<rect x="138.665" y="15.812" fill="#C2345F" width="15" height="62"/>
	</g>
	<g>
		<rect x="199.01" y="16.604" opacity="0.75" fill="#07A5A9" width="41.834" height="12.667"/>
		<rect x="199.01" y="16.604" fill="#3A1A40" width="12" height="61.667"/>
		<rect x="208.01" y="66.271" fill="#C2345F" width="29.834" height="12"/>
		<circle cx="215.052" cy="45.104" r="2.333"/>
		<circle cx="219.927" cy="49.271" r="2.333"/>
		<circle cx="223.719" cy="44.603" r="2.333"/>
		<circle cx="228.386" cy="49.271" r="2.333"/>
		<circle cx="233.053" cy="44.603" r="2.333"/>
		<circle cx="237.72" cy="49.271" r="2.333"/>
		<circle cx="211.01" cy="49.271" r="2.333"/>
		<circle cx="207.344" cy="44.603" r="2.334"/>
		<circle cx="203.427" cy="49.771" r="2.333"/>
		<path d="M199.719,42.27c1.289,0,2.334,1.045,2.334,2.333c0,1.289-1.045,2.334-2.334,2.334"/>
	</g>
	<g>
		<line fill="none" stroke="#000000" stroke-width="2" stroke-miterlimit="10" x1="46.517" y1="108.798" x2="54.759" y2="108.798"/>
		<line fill="none" stroke="#000000" stroke-width="2" stroke-miterlimit="10" x1="57.676" y1="111.798" x2="45.009" y2="111.798"/>
		<line fill="none" stroke="#000000" stroke-width="2" stroke-miterlimit="10" x1="50.638" y1="106.132" x2="43.843" y2="106.132"/>
		<line fill="none" stroke="#000000" stroke-width="2" stroke-miterlimit="10" x1="59.343" y1="115.298" x2="43.843" y2="115.298"/>
		<line fill="none" stroke="#000000" stroke-width="2" stroke-miterlimit="10" x1="59.343" y1="117.632" x2="45.009" y2="117.632"/>
		<line fill="none" stroke="#000000" stroke-width="2" stroke-miterlimit="10" x1="59.343" y1="121.464" x2="43.843" y2="121.464"/>
		<line fill="none" stroke="#000000" stroke-width="2" stroke-miterlimit="10" x1="57.676" y1="124.132" x2="42.009" y2="124.132"/>
		<line fill="none" stroke="#000000" stroke-width="2" stroke-miterlimit="10" x1="56.176" y1="127.464" x2="46.517" y2="127.464"/>
		<line fill="none" stroke="#000000" stroke-width="2" stroke-miterlimit="10" x1="45.009" y1="130.464" x2="51.343" y2="130.464"/>
		<rect x="29.509" y="105.298" fill="#3A1A40" width="17.008" height="63.246"/>
		<ellipse fill="#C2345F" cx="54.759" cy="149.171" rx="20.25" ry="19.373"/>
	</g>
	<g>
		<g>
			
				<line fill="none" stroke="#000000" stroke-width="5.1962" stroke-miterlimit="10" x1="112.58" y1="105.546" x2="112.58" y2="168.297"/>
			
				<line fill="none" stroke="#000000" stroke-width="3.3367" stroke-miterlimit="10" x1="118.996" y1="105.546" x2="118.996" y2="168.297"/>
			
				<line fill="none" stroke="#000000" stroke-width="4" stroke-miterlimit="10" x1="129.163" y1="109.296" x2="129.163" y2="164.547"/>
			
				<line fill="none" stroke="#000000" stroke-width="4" stroke-miterlimit="10" x1="136.413" y1="113.796" x2="136.413" y2="158.797"/>
			
				<line fill="none" stroke="#000000" stroke-width="1.6621" stroke-miterlimit="10" x1="145.747" y1="128.296" x2="145.747" y2="143.546"/>
			
				<line fill="none" stroke="#000000" stroke-width="4" stroke-miterlimit="10" x1="94.413" y1="113.796" x2="94.413" y2="160.797"/>
			
				<line fill="none" stroke="#000000" stroke-width="2.8722" stroke-miterlimit="10" x1="87.205" y1="121.046" x2="87.205" y2="151.796"/>
			
				<line fill="none" stroke="#000000" stroke-width="4" stroke-miterlimit="10" x1="104.663" y1="107.296" x2="104.663" y2="166.297"/>
			<line fill="#DBD8CB" x1="90.996" y1="115.38" x2="90.996" y2="157.38"/>
			<line fill="none" x1="107.163" y1="107.296" x2="107.163" y2="168.297"/>
			<line fill="none" x1="132.163" y1="111.046" x2="132.163" y2="163.297"/>
		</g>
		<circle fill="#C2345F" cx="114.33" cy="136.421" r="13.333"/>
	</g>
	<g>
		<polyline fill="#C2345F" points="160.509,105.756 212.843,135.422 160.509,166.088 		"/>
		
			<line fill="none" stroke="#000000" stroke-width="3" stroke-miterlimit="10" x1="167.509" y1="135.922" x2="221.177" y2="135.922"/>
		
			<line fill="none" stroke="#000000" stroke-width="3" stroke-miterlimit="10" x1="176.843" y1="142.089" x2="221.177" y2="142.089"/>
		
			<line fill="none" stroke="#000000" stroke-width="3" stroke-miterlimit="10" x1="189.343" y1="149.255" x2="221.177" y2="149.255"/>
		
			<line fill="none" stroke="#000000" stroke-width="3" stroke-miterlimit="10" x1="201.343" y1="155.755" x2="221.177" y2="155.755"/>
		
			<line fill="none" stroke="#000000" stroke-width="3" stroke-miterlimit="10" x1="212.509" y1="162.422" x2="221.177" y2="162.422"/>
		
			<line fill="none" stroke="#000000" stroke-width="3" stroke-miterlimit="10" x1="202.509" y1="115.256" x2="221.177" y2="115.256"/>
		
			<line fill="none" stroke="#000000" stroke-width="3" stroke-miterlimit="10" x1="191.509" y1="122.256" x2="221.177" y2="122.256"/>
		
			<line fill="none" stroke="#000000" stroke-width="3" stroke-miterlimit="10" x1="179.009" y1="128.756" x2="221.177" y2="128.756"/>
		
			<line fill="none" stroke="#000000" stroke-width="3" stroke-miterlimit="10" x1="212.509" y1="108.467" x2="221.177" y2="108.467"/>
	</g>
</g>
</svg>
