<?xml version="1.0" encoding="utf-8"?>
<!-- Generator: Adobe Illustrator 15.1.0, SVG Export Plug-In . SVG Version: 6.00 Build 0)  -->
<!DOCTYPE svg PUBLIC "-//W3C//DTD SVG 1.1//EN" "http://www.w3.org/Graphics/SVG/1.1/DTD/svg11.dtd">
<svg version="1.1" id="Layer_1" xmlns="http://www.w3.org/2000/svg" xmlns:xlink="http://www.w3.org/1999/xlink" x="0px" y="0px"
	 width="182.492px" height="550.678px" viewBox="0 0 182.492 550.678" enable-background="new 0 0 182.492 550.678"
	 xml:space="preserve">
<g>
	<polyline fill="#118285" stroke="#127C7C" stroke-width="6" stroke-miterlimit="10" points="0.098,181.886 91.139,90.845 
		182.179,181.886 	"/>
	<polyline fill="#118285" stroke="#127C7C" stroke-width="6" stroke-miterlimit="10" points="0.607,-0.196 91.648,90.845 
		0.607,181.886 	"/>
	<polyline fill="#118285" stroke="#127C7C" stroke-width="6" stroke-miterlimit="10" points="182.689,0 91.648,91.041 0.607,0 	"/>
	<polyline fill="#118285" stroke="#127C7C" stroke-width="6" stroke-miterlimit="10" points="91.899,0 46.128,45.771 0.356,0 	"/>
	<polyline fill="#118285" stroke="#127C7C" stroke-width="6" stroke-miterlimit="10" points="182.18,182.081 91.139,91.041 
		182.18,0 	"/>
	<polyline fill="#118285" stroke="#127C7C" stroke-width="6" stroke-miterlimit="10" points="182.179,181.776 109.347,108.944 
		182.179,36.11 	"/>
	<polyline fill="#118285" stroke="#127C7C" stroke-width="6" stroke-miterlimit="10" points="181.444,181.776 123.177,123.511 
		181.444,65.243 	"/>
	<polyline fill="#118285" stroke="#127C7C" stroke-width="6" stroke-miterlimit="10" points="181.444,181.776 134.831,135.163 
		181.444,88.55 	"/>
	<polyline fill="#118285" stroke="#127C7C" stroke-width="6" stroke-miterlimit="10" points="181.444,181.776 144.153,144.485 
		181.444,107.196 	"/>
	<polyline fill="#118285" stroke="#127C7C" stroke-width="6" stroke-miterlimit="10" points="181.444,182.081 151.61,152.249 
		181.444,122.417 	"/>
	<polyline fill="#118285" stroke="#127C7C" stroke-width="6" stroke-miterlimit="10" points="0.195,368.086 91.236,459.127 
		0.195,550.168 	"/>
	<polyline fill="#118285" stroke="#127C7C" stroke-width="6" stroke-miterlimit="10" points="182.277,368.596 91.236,459.637 
		0.195,368.596 	"/>
	<polyline fill="#118285" stroke="#127C7C" stroke-width="6" stroke-miterlimit="10" points="182.081,550.678 91.04,459.637 
		182.081,368.596 	"/>
	<polyline fill="#118285" stroke="#127C7C" stroke-width="6" stroke-miterlimit="10" points="182.081,459.889 136.31,414.118 
		182.081,368.346 	"/>
	<polyline fill="#118285" stroke="#127C7C" stroke-width="6" stroke-miterlimit="10" points="0,550.168 91.04,459.127 
		182.081,550.168 	"/>
	<polyline fill="#118285" stroke="#127C7C" stroke-width="6" stroke-miterlimit="10" points="0.305,550.168 73.137,477.336 
		145.971,550.168 	"/>
	<polyline fill="#118285" stroke="#127C7C" stroke-width="6" stroke-miterlimit="10" points="0.305,549.434 58.57,491.167 
		116.838,549.434 	"/>
	<polyline fill="#118285" stroke="#127C7C" stroke-width="6" stroke-miterlimit="10" points="0.305,549.434 46.918,502.821 
		93.531,549.434 	"/>
	<polyline fill="#118285" stroke="#127C7C" stroke-width="6" stroke-miterlimit="10" points="0.305,549.434 37.596,512.143 
		74.885,549.434 	"/>
	<polyline fill="#118285" stroke="#127C7C" stroke-width="6" stroke-miterlimit="10" points="0,549.434 29.832,519.6 
		59.664,549.434 	"/>
	
		<rect x="91.394" y="182.081" fill="#118285" stroke="#127C7C" stroke-width="6" stroke-miterlimit="10" width="45.55" height="186.005"/>
	
		<rect x="136.943" y="182.081" fill="#118285" stroke="#127C7C" stroke-width="6" stroke-miterlimit="10" width="45.549" height="186.005"/>
	
		<rect x="0.295" y="182.081" fill="#118285" stroke="#127C7C" stroke-width="6" stroke-miterlimit="10" width="45.549" height="186.005"/>
	
		<rect x="45.844" y="182.081" fill="#118285" stroke="#127C7C" stroke-width="6" stroke-miterlimit="10" width="45.55" height="186.005"/>
	<polygon fill="#118285" stroke="#127C7C" stroke-width="6" stroke-miterlimit="10" points="136.943,336.081 91.394,368.086 
		91.394,182.081 136.943,215.581 	"/>
	<polygon fill="#118285" stroke="#127C7C" stroke-width="6" stroke-miterlimit="10" points="136.943,215.581 182.492,182.081 
		182.492,368.086 136.943,336.081 	"/>
	<polygon fill="#118285" stroke="#127C7C" stroke-width="6" stroke-miterlimit="10" points="45.844,336.081 0.295,368.086 
		0.295,182.081 45.844,215.581 	"/>
	<polygon fill="#118285" stroke="#127C7C" stroke-width="6" stroke-miterlimit="10" points="45.844,215.581 91.394,182.081 
		91.394,368.086 45.844,336.081 	"/>
	
		<rect x="0.607" y="-0.196" fill="none" stroke="#127C7C" stroke-width="6" stroke-miterlimit="10" width="181.474" height="550.365"/>
</g>
</svg>
