<?xml version="1.0" encoding="utf-8"?>
<!-- Generator: Adobe Illustrator 15.1.0, SVG Export Plug-In . SVG Version: 6.00 Build 0)  -->
<!DOCTYPE svg PUBLIC "-//W3C//DTD SVG 1.1//EN" "http://www.w3.org/Graphics/SVG/1.1/DTD/svg11.dtd">
<svg version="1.1" id="Layer_1" xmlns="http://www.w3.org/2000/svg" xmlns:xlink="http://www.w3.org/1999/xlink" x="0px" y="0px"
	 width="345px" height="352px" viewBox="0 0 345 352" enable-background="new 0 0 345 352" xml:space="preserve">
<path fill="none" stroke="#B9BBB6" stroke-width="3.5945" stroke-miterlimit="10" d="M342.209,343.354
	c0,2.514-1.986,4.553-4.436,4.553H10.431c-2.45,0-4.436-2.039-4.436-4.553V10.195c0-2.514,1.986-4.551,4.436-4.551h327.343
	c2.449,0,4.436,2.038,4.436,4.551V343.354z"/>
<path fill="none" stroke="#B9BBB6" stroke-width="5" stroke-miterlimit="10" d="M88.5,164.951c0,140.473,164,139.158,164,0"/>
<path fill="#B9BBB6" stroke="#B9BBB6" stroke-width="3.7225" stroke-miterlimit="10" d="M88.254,180.17
	c8.318-38.448,113.746,0,117.246-61.67c23.334,12.683,46.667,61.67,46.667,61.67h3c0-35.592,0.858-74.234-18.167-95.172
	C222.32,68.842,190.545,66,170.077,66c-20.56,0-54.369,3.767-69.077,20.054c-18.911,20.94-16.013,58.647-16.013,94.116"/>
<circle fill="none" stroke="#B9BBB6" stroke-width="3.7225" stroke-miterlimit="10" cx="136.062" cy="183.512" r="18.562"/>
<circle fill="none" stroke="#B9BBB6" stroke-width="3.7225" stroke-miterlimit="10" cx="199.755" cy="183.512" r="18.562"/>
<path fill="none" stroke="#B9BBB6" stroke-width="3.7225" stroke-miterlimit="10" d="M154.624,183.512
	c14.126-12.262,26.569,0,26.569,0"/>
<line fill="none" stroke="#B9BBB6" stroke-width="3.7225" stroke-miterlimit="10" x1="136.167" y1="260.5" x2="136.167" y2="290"/>
<line fill="none" stroke="#B9BBB6" stroke-width="3.7225" stroke-miterlimit="10" x1="206.834" y1="260.5" x2="206.834" y2="292.011"/>
<path fill="none" stroke="#B9BBB6" stroke-width="4.454" stroke-miterlimit="10" d="M206.834,292.011
	C252.5,283.812,306.5,317.933,334.5,346.5"/>
<path fill="none" stroke="#B9BBB6" stroke-width="4.4974" stroke-miterlimit="10" d="M136.5,290.511
	C89.939,282.312,34.882,316.433,6.334,345"/>
<ellipse transform="matrix(-0.8497 -0.5273 0.5273 -0.8497 384.5797 220.783)" fill="#B9BBB6" stroke="#B9BBB6" stroke-width="4.8395" stroke-miterlimit="10" cx="223.758" cy="55.577" rx="26.237" ry="23.63"/>
</svg>
