<?xml version="1.0" encoding="utf-8"?>
<!-- Generator: Adobe Illustrator 15.1.0, SVG Export Plug-In . SVG Version: 6.00 Build 0)  -->
<!DOCTYPE svg PUBLIC "-//W3C//DTD SVG 1.1//EN" "http://www.w3.org/Graphics/SVG/1.1/DTD/svg11.dtd">
<svg version="1.1" id="Layer_1" xmlns="http://www.w3.org/2000/svg" xmlns:xlink="http://www.w3.org/1999/xlink" x="0px" y="0px"
	 width="343.333px" height="349.333px" viewBox="0 0 343.333 349.333" enable-background="new 0 0 343.333 349.333"
	 xml:space="preserve">
<path fill="none" stroke="#B9BBB6" stroke-width="5" stroke-miterlimit="10" d="M77.525,160.117
	c0,140.473,191.307,139.159,191.307,0"/>
<path fill="none" stroke="#B9BBB6" stroke-width="5" stroke-miterlimit="10" d="M89.967,78.25c0,0,0.211,14.242,2.157,11.651"/>
<path fill="#B9BBB6" stroke="#B9BBB6" stroke-width="5" stroke-miterlimit="10" d="M89.967,78.25c0,0-19.203,40.563-10.78,97.082
	c9.917-36.021,10.972-32.669,12.938-44.436c86.737,20.713,114.786,5.61,150.17,0c6.688,20.066,26.162,39.72,26.162,39.72
	c6.85-67.337-37.813-121.277-37.813-121.277c-5.394,15.319-15.534,21.145-15.534,21.145c-30.854-17.908-25.461-53.94-25.461-53.94
	c-27.401,15.319-42.289,38.406-42.289,38.406c-5.394-5.826-2.158-18.124-2.158-18.124S130.314,38.765,92.124,89.9"/>
<path fill="none" stroke="#B9BBB6" stroke-width="5" stroke-miterlimit="10" d="M159.874,186.993c0,1.192-0.966,2.158-2.158,2.158
	h-48.762c-1.191,0-2.158-0.966-2.158-2.158v-28.48c0-1.191,0.966-2.158,2.158-2.158h48.762c1.191,0,2.158,0.966,2.158,2.158V186.993
	z"/>
<path fill="none" stroke="#B9BBB6" stroke-width="5" stroke-miterlimit="10" d="M241.646,186.993c0,1.192-0.965,2.158-2.156,2.158
	h-48.762c-1.192,0-2.158-0.966-2.158-2.158v-28.48c0-1.191,0.966-2.158,2.158-2.158h48.762c1.191,0,2.156,0.966,2.156,2.158V186.993
	z"/>
<path fill="none" stroke="#B9BBB6" stroke-width="5" stroke-miterlimit="10" d="M159.874,172.753c15.966-6.473,28.696,0,28.696,0"/>
<line fill="none" stroke="#B9BBB6" stroke-width="5" stroke-miterlimit="10" x1="137.518" y1="257.868" x2="137.518" y2="272.004"/>
<line fill="none" stroke="#B9BBB6" stroke-width="5" stroke-miterlimit="10" x1="209.922" y1="257.868" x2="209.922" y2="272.004"/>
<path fill="none" stroke="#B9BBB6" stroke-width="5" stroke-miterlimit="10" d="M209.922,272.004c0,0,72.321-0.891,128.634,72.926"
	/>
<path fill="none" stroke="#B9BBB6" stroke-width="5" stroke-miterlimit="10" d="M136.171,272.004c0,0-72.322-0.891-128.634,72.926"
	/>
<path fill="none" stroke="#B9BBB6" stroke-width="3.5945" stroke-miterlimit="10" d="M340.376,341.52
	c0,2.514-1.986,4.553-4.436,4.553H8.598c-2.45,0-4.436-2.039-4.436-4.553V8.362c0-2.514,1.986-4.551,4.436-4.551h327.343
	c2.449,0,4.436,2.038,4.436,4.551V341.52z"/>
</svg>
